# xmcd
#
# Track frame offsets:
#	150
#	12083
#	23424
#	34348
#	46367
#	55199
#	67267
#	78338
#	88869
#	99947
#	109578
#
# Disc length: 1646 seconds
#
# Revision: 0
# Processed by: cddbd v1.5.2PL0 Copyright (c) Steve Scherf et al.
# Submitted via: EasyCDDAExtractor 16.0.1.1
#
DISCID=81066c0b
DTITLE=Bobby Bare and Norma Jean and Liz Anderson - The Game Of Triangles
DYEAR=1967
DGENRE=Country
TTITLE0=Bobby Bare and Norma Jean and Liz Anderson - One Among The Two Of Us
TTITLE1=Liz Anderson - The Wife Of The Party
TTITLE2=Norma Jean - Pursuing Happiness
TTITLE3=Bobby Bare - Guess I'll Move on Down The Line
TTITLE4=Bobby Bare and Norma Jean and Liz Anderson - Bye  Bye  Bye
TTITLE5=Bobby Bare and Norma Jean and Liz Anderson - The Game Of Triangles
TTITLE6=Bobby Bare - Homesick
TTITLE7=Liz Anderson - Fairytale
TTITLE8=Bobby Bare and Norma Jean and Liz Anderson - Three Mixed Up Hearts
TTITLE9=Norma Jean - Don't Let The Dooknob Hit You
TTITLE10=Bobby Bare and Norma Jean and Liz Anderson - Which One Is To Blame
EXTD=
EXTT0=
EXTT1=
EXTT2=
EXTT3=
EXTT4=
EXTT5=
EXTT6=
EXTT7=
EXTT8=
EXTT9=
EXTT10=
PLAYORDER=
